# Blender 4.0.2
# www.blender.org
mtllib cap.mtl
o Cylinder
v -0.426136 -0.499874 0.268308
v -0.394571 -0.499874 0.299874
v -0.394571 -0.499874 0.268308
v -0.299874 -0.499874 0.394571
v -0.268308 -0.499874 0.426136
v -0.268308 -0.499874 0.394571
v -0.363005 -0.499874 0.331439
v -0.331439 -0.499874 0.363005
v -0.331439 -0.499874 0.331439
v -0.363005 -0.499874 0.299874
v -0.299874 -0.499874 0.363005
v -0.457702 -0.499874 0.205177
v -0.426136 -0.499874 0.205177
v -0.489268 -0.499874 0.110480
v -0.457702 -0.499874 0.110480
v -0.205177 -0.499874 0.457702
v -0.205177 -0.499874 0.426136
v -0.110480 -0.499874 0.489268
v -0.110480 -0.499874 0.457702
v -0.426136 0.099874 0.268308
v -0.394571 0.099874 0.299874
v -0.394571 0.099874 0.268308
v -0.299874 0.099874 0.394571
v -0.268308 0.099874 0.426136
v -0.268308 0.099874 0.394571
v -0.363005 0.099874 0.331439
v -0.331439 0.099874 0.363005
v -0.331439 0.099874 0.331439
v -0.363005 0.099874 0.299874
v -0.299874 0.099874 0.363005
v -0.457702 0.099874 0.205177
v -0.426136 0.099874 0.205177
v -0.489268 0.099874 0.110480
v -0.457702 0.099874 0.110480
v -0.205177 0.099874 0.457702
v -0.205177 0.099874 0.426136
v -0.110480 0.099874 0.489268
v -0.110480 0.099874 0.457702
v -0.489268 -0.499874 -0.110480
v -0.457702 -0.499874 -0.110480
v -0.457702 -0.499874 -0.205177
v -0.426136 -0.499874 -0.205177
v -0.426136 -0.499874 -0.268308
v -0.394571 -0.499874 -0.268308
v -0.394571 -0.499874 -0.299874
v -0.363005 -0.499874 -0.299874
v -0.363005 -0.499874 -0.331439
v -0.331439 -0.499874 -0.331439
v -0.331439 -0.499874 -0.363005
v -0.299874 -0.499874 -0.363005
v -0.299874 -0.499874 -0.394571
v -0.268308 -0.499874 -0.394571
v -0.268308 -0.499874 -0.426136
v -0.205177 -0.499874 -0.426136
v -0.205177 -0.499874 -0.457702
v -0.110480 -0.499874 -0.457702
v -0.110480 -0.499874 -0.489268
v -0.489268 0.099874 -0.110480
v -0.457702 0.099874 -0.110480
v -0.457702 0.099874 -0.205177
v -0.426136 0.099874 -0.205177
v -0.426136 0.099874 -0.268308
v -0.394571 0.099874 -0.268308
v -0.394571 0.099874 -0.299874
v -0.363005 0.099874 -0.299874
v -0.363005 0.099874 -0.331439
v -0.331439 0.099874 -0.331439
v -0.331439 0.099874 -0.363005
v -0.299874 0.099874 -0.363005
v -0.299874 0.099874 -0.394571
v -0.268308 0.099874 -0.394571
v -0.268308 0.099874 -0.426136
v -0.205177 0.099874 -0.426136
v -0.205177 0.099874 -0.457702
v -0.110480 0.099874 -0.457702
v -0.110480 0.099874 -0.489268
v 0.110480 -0.499874 0.489268
v 0.110480 -0.499874 0.457702
v 0.205177 -0.499874 0.457702
v 0.205177 -0.499874 0.426136
v 0.268308 -0.499874 0.426136
v 0.268308 -0.499874 0.394571
v 0.299874 -0.499874 0.394571
v 0.299874 -0.499874 0.363005
v 0.331439 -0.499874 0.363005
v 0.331439 -0.499874 0.331439
v 0.363005 -0.499874 0.331439
v 0.363005 -0.499874 0.299874
v 0.394571 -0.499874 0.299874
v 0.394571 -0.499874 0.268308
v 0.426136 -0.499874 0.268308
v 0.426136 -0.499874 0.205177
v 0.457702 -0.499874 0.205177
v 0.457702 -0.499874 0.110480
v 0.489268 -0.499874 0.110480
v 0.110480 0.099874 0.489268
v 0.110480 0.099874 0.457702
v 0.205177 0.099874 0.457702
v 0.205177 0.099874 0.426136
v 0.268308 0.099874 0.426136
v 0.268308 0.099874 0.394571
v 0.299874 0.099874 0.394571
v 0.299874 0.099874 0.363005
v 0.331439 0.099874 0.363005
v 0.331439 0.099874 0.331439
v 0.363005 0.099874 0.331439
v 0.363005 0.099874 0.299874
v 0.394571 0.099874 0.299874
v 0.394571 0.099874 0.268308
v 0.426136 0.099874 0.268308
v 0.426136 0.099874 0.205177
v 0.457702 0.099874 0.205177
v 0.457702 0.099874 0.110480
v 0.489268 0.099874 0.110480
v 0.110480 -0.499874 -0.457702
v 0.110480 -0.499874 -0.489268
v 0.205177 -0.499874 -0.426136
v 0.205177 -0.499874 -0.457702
v 0.457702 -0.499874 -0.110480
v 0.489268 -0.499874 -0.110480
v 0.426136 -0.499874 -0.205177
v 0.457702 -0.499874 -0.205177
v 0.299874 -0.499874 -0.363005
v 0.363005 -0.499874 -0.299874
v 0.331439 -0.499874 -0.331439
v 0.331439 -0.499874 -0.363005
v 0.363005 -0.499874 -0.331439
v 0.268308 -0.499874 -0.394571
v 0.268308 -0.499874 -0.426136
v 0.299874 -0.499874 -0.394571
v 0.394571 -0.499874 -0.268308
v 0.394571 -0.499874 -0.299874
v 0.426136 -0.499874 -0.268308
v 0.110480 0.099874 -0.457702
v 0.110480 0.099874 -0.489268
v 0.205177 0.099874 -0.426136
v 0.205177 0.099874 -0.457702
v 0.457702 0.099874 -0.110480
v 0.489268 0.099874 -0.110480
v 0.426136 0.099874 -0.205177
v 0.457702 0.099874 -0.205177
v 0.299874 0.099874 -0.363005
v 0.363005 0.099874 -0.299874
v 0.331439 0.099874 -0.331439
v 0.331439 0.099874 -0.363005
v 0.363005 0.099874 -0.331439
v 0.268308 0.099874 -0.394571
v 0.268308 0.099874 -0.426136
v 0.299874 0.099874 -0.394571
v 0.394571 0.099874 -0.268308
v 0.394571 0.099874 -0.299874
v 0.426136 0.099874 -0.268308
vn -1.0000 -0.0000 -0.0000
vn -0.0000 -0.0000 1.0000
vn -0.0000 -0.0000 -1.0000
vn 1.0000 -0.0000 -0.0000
vn -0.0000 -1.0000 -0.0000
vn -0.0000 1.0000 -0.0000
s 0
usemtl Material.001
f 8//1 27//1 28//1 9//1
f 89//2 108//2 107//2 88//2
f 93//2 112//2 111//2 92//2
f 37//2 18//2 77//2 96//2
f 56//3 55//3 74//3 75//3
f 118//4 137//4 136//4 117//4
f 78//4 97//4 96//4 77//4
f 26//1 29//1 10//1 7//1
f 22//2 20//2 1//2 3//2
f 44//1 63//1 64//1 45//1
f 88//4 107//4 106//4 87//4
f 4//1 23//1 30//1 11//1
f 16//1 35//1 36//1 17//1
f 1//1 20//1 32//1 13//1
f 135//4 134//4 115//4 116//4
f 94//4 113//4 112//4 93//4
f 82//4 101//4 100//4 81//4
f 17//2 36//2 24//2 5//2
f 146//3 127//3 125//3 144//3
f 146//4 143//4 124//4 127//4
f 134//3 137//3 118//3 115//3
f 42//5 43//5 44//5 45//5 46//5 47//5 48//5 49//5 50//5 51//5 52//5 53//5 54//5 55//5 56//5 57//5 116//5 115//5 118//5 117//5 129//5 128//5 130//5 123//5 126//5 125//5 127//5 124//5 132//5 131//5 133//5 121//5 122//5 119//5 120//5 95//5 94//5 93//5 92//5 91//5 90//5 89//5 88//5 87//5 86//5 85//5 84//5 83//5 82//5 81//5 80//5 79//5 78//5 77//5 18//5 19//5 16//5 17//5 5//5 6//5 4//5 11//5 8//5 9//5 7//5 10//5 2//5 3//5 1//5 13//5 12//5 15//5 14//5 39//5 40//5 41//5
f 46//3 45//3 64//3 65//3
f 122//3 121//3 140//3 141//3
f 145//3 126//3 123//3 142//3
f 19//2 38//2 35//2 16//2
f 95//2 114//2 113//2 94//2
f 129//3 117//3 136//3 148//3
f 73//3 54//3 53//3 72//3
f 107//6 108//6 109//6 110//6 111//6 112//6 113//6 114//6 139//6 138//6 141//6 140//6 152//6 150//6 151//6 143//6 146//6 144//6 145//6 142//6 149//6 147//6 148//6 136//6 137//6 134//6 135//6 76//6 75//6 74//6 73//6 72//6 71//6 70//6 69//6 68//6 67//6 66//6 65//6 64//6 63//6 62//6 61//6 60//6 59//6 58//6 33//6 34//6 31//6 32//6 20//6 22//6 21//6 29//6 26//6 28//6 27//6 30//6 23//6 25//6 24//6 36//6 35//6 38//6 37//6 96//6 97//6 98//6 99//6 100//6 101//6 102//6 103//6 104//6 105//6 106//6
f 48//1 67//1 68//1 49//1
f 61//3 42//3 41//3 60//3
f 120//3 119//3 138//3 139//3
f 57//3 76//3 135//3 116//3
f 15//1 12//1 31//1 34//1
f 149//4 142//4 123//4 130//4
f 50//3 49//3 68//3 69//3
f 133//4 152//4 140//4 121//4
f 21//1 22//1 3//1 2//1
f 106//2 105//2 86//2 87//2
f 81//2 100//2 99//2 80//2
f 71//1 72//1 53//1 52//1
f 33//1 58//1 39//1 14//1
f 30//2 27//2 8//2 11//2
f 133//3 131//3 150//3 152//3
f 46//1 65//1 66//1 47//1
f 126//4 145//4 144//4 125//4
f 105//4 104//4 85//4 86//4
f 54//1 73//1 74//1 55//1
f 132//4 151//4 150//4 131//4
f 119//4 122//4 141//4 138//4
f 32//2 31//2 12//2 13//2
f 15//2 34//2 33//2 14//2
f 139//4 114//4 95//4 120//4
f 109//4 108//4 89//4 90//4
f 5//1 24//1 25//1 6//1
f 84//4 103//4 102//4 83//4
f 6//2 25//2 23//2 4//2
f 50//1 69//1 70//1 51//1
f 71//3 52//3 51//3 70//3
f 40//1 59//1 60//1 41//1
f 149//3 130//3 128//3 147//3
f 80//4 99//4 98//4 79//4
f 63//3 44//3 43//3 62//3
f 61//1 62//1 43//1 42//1
f 110//4 91//4 92//4 111//4
f 110//2 109//2 90//2 91//2
f 83//2 102//2 101//2 82//2
f 48//3 47//3 66//3 67//3
f 104//2 103//2 84//2 85//2
f 37//1 38//1 19//1 18//1
f 129//4 148//4 147//4 128//4
f 10//2 29//2 21//2 2//2
f 132//3 124//3 143//3 151//3
f 56//1 75//1 76//1 57//1
f 59//3 40//3 39//3 58//3
f 79//2 98//2 97//2 78//2
f 28//2 26//2 7//2 9//2
