# Blender 3.6.5
# www.blender.org
mtllib kompas-1.mtl
o Untitled.001
v -0.551401 -0.047826 0.250000
v -0.551401 -0.047826 0.050000
v -0.551401 -0.047826 -0.050000
v -0.551401 -0.047826 -0.250000
v -0.551401 0.052174 0.250000
v -0.551401 0.052174 0.050000
v -0.551401 0.052174 -0.050000
v -0.551401 0.052174 -0.250000
v -0.551401 0.152174 0.050000
v -0.551401 0.152174 -0.050000
v -0.451401 -0.047826 0.350000
v -0.451401 -0.047826 0.250000
v -0.451401 -0.047826 -0.250000
v -0.451401 -0.047826 -0.350000
v -0.451401 0.052174 0.350000
v -0.451401 0.052174 0.250000
v -0.451401 0.052174 0.150000
v -0.451401 0.052174 0.050000
v -0.451401 0.052174 -0.050000
v -0.451401 0.052174 -0.150000
v -0.451401 0.052174 -0.250000
v -0.451401 0.052174 -0.350000
v -0.451401 0.152174 0.150000
v -0.451401 0.152174 0.050000
v -0.451401 0.152174 -0.050000
v -0.451401 0.152174 -0.150000
v -0.351401 -0.047826 0.450000
v -0.351401 -0.047826 0.350000
v -0.351401 -0.047826 -0.350000
v -0.351401 -0.047826 -0.450000
v -0.351401 0.052174 0.450000
v -0.351401 0.052174 0.350000
v -0.351401 0.052174 0.250000
v -0.351401 0.052174 0.150000
v -0.351401 0.052174 -0.150000
v -0.351401 0.052174 -0.250000
v -0.351401 0.052174 -0.350000
v -0.351401 0.052174 -0.450000
v -0.351401 0.152174 0.250000
v -0.351401 0.152174 0.150000
v -0.351401 0.152174 -0.150000
v -0.351401 0.152174 -0.250000
v -0.251401 -0.047826 0.550000
v -0.251401 -0.047826 0.450000
v -0.251401 -0.047826 -0.450000
v -0.251401 -0.047826 -0.550000
v -0.251401 0.052174 0.550000
v -0.251401 0.052174 0.450000
v -0.251401 0.052174 -0.450000
v -0.251401 0.052174 -0.550000
v -0.251401 0.052174 0.250000
v -0.251401 0.052174 0.050000
v -0.251401 0.052174 -0.050000
v -0.251401 0.052174 -0.250000
v -0.251401 0.152174 0.250000
v -0.251401 0.152174 0.050000
v -0.251401 0.152174 -0.050000
v -0.251401 0.152174 -0.250000
v 0.048599 0.052174 0.050000
v 0.048599 0.052174 -0.050000
v 0.048599 0.152174 0.050000
v 0.048599 0.152174 -0.050000
v 0.248599 -0.047826 0.550000
v 0.248599 -0.047826 0.450000
v 0.248599 -0.047826 -0.450000
v 0.248599 -0.047826 -0.550000
v 0.248599 0.052174 0.550000
v 0.248599 0.052174 0.450000
v 0.248599 0.052174 -0.450000
v 0.248599 0.052174 -0.550000
v 0.348599 -0.047826 0.450000
v 0.348599 -0.047826 0.350000
v 0.348599 -0.047826 -0.350000
v 0.348599 -0.047826 -0.450000
v 0.348599 0.052174 0.450000
v 0.348599 0.052174 0.350000
v 0.348599 0.052174 -0.350000
v 0.348599 0.052174 -0.450000
v 0.448599 -0.047826 0.350000
v 0.448599 -0.047826 0.250000
v 0.448599 -0.047826 -0.250000
v 0.448599 -0.047826 -0.350000
v 0.448599 0.052174 0.350000
v 0.448599 0.052174 0.250000
v 0.448599 0.052174 -0.250000
v 0.448599 0.052174 -0.350000
v 0.548599 -0.047826 0.250000
v 0.548599 -0.047826 0.050000
v 0.548599 -0.047826 -0.050000
v 0.548599 -0.047826 -0.250000
v 0.548599 0.052174 0.250000
v 0.548599 0.052174 0.050000
v 0.548599 0.052174 -0.050000
v 0.548599 0.052174 -0.250000
v -0.251401 -0.047826 0.550000
v -0.251401 0.052174 0.550000
v -0.051401 -0.047826 0.550000
v -0.051401 0.052174 0.550000
v 0.048599 -0.047826 0.550000
v 0.048599 0.052174 0.550000
v 0.248599 -0.047826 0.550000
v 0.248599 0.052174 0.550000
v -0.351401 -0.047826 0.450000
v -0.351401 0.052174 0.450000
v -0.251401 -0.047826 0.450000
v -0.251401 0.052174 0.450000
v 0.248599 -0.047826 0.450000
v 0.248599 0.052174 0.450000
v 0.348599 -0.047826 0.450000
v 0.348599 0.052174 0.450000
v -0.451401 -0.047826 0.350000
v -0.451401 0.052174 0.350000
v -0.351401 -0.047826 0.350000
v -0.351401 0.052174 0.350000
v 0.348599 -0.047826 0.350000
v 0.348599 0.052174 0.350000
v 0.448599 -0.047826 0.350000
v 0.448599 0.052174 0.350000
v -0.551401 -0.047826 0.250000
v -0.551401 0.052174 0.250000
v -0.451401 -0.047826 0.250000
v -0.451401 0.052174 0.250000
v -0.351401 0.052174 0.250000
v -0.351401 0.152174 0.250000
v -0.251401 0.052174 0.250000
v -0.251401 0.152174 0.250000
v 0.448599 -0.047826 0.250000
v 0.448599 0.052174 0.250000
v 0.548599 -0.047826 0.250000
v 0.548599 0.052174 0.250000
v -0.451401 0.052174 0.150000
v -0.451401 0.152174 0.150000
v -0.351401 0.052174 0.150000
v -0.351401 0.152174 0.150000
v -0.551401 0.052174 0.050000
v -0.551401 0.152174 0.050000
v -0.451401 0.052174 0.050000
v -0.451401 0.152174 0.050000
v -0.251401 0.052174 0.050000
v -0.251401 0.152174 0.050000
v -0.051401 0.052174 0.050000
v 0.048599 0.052174 0.050000
v 0.048599 0.152174 0.050000
v -0.551401 0.052174 -0.050000
v -0.551401 0.152174 -0.050000
v -0.451401 0.052174 -0.050000
v -0.451401 0.152174 -0.050000
v -0.251401 0.052174 -0.050000
v -0.251401 0.152174 -0.050000
v -0.051401 0.052174 -0.050000
v 0.048599 0.052174 -0.050000
v 0.048599 0.152174 -0.050000
v -0.451401 0.052174 -0.150000
v -0.451401 0.152174 -0.150000
v -0.351401 0.052174 -0.150000
v -0.351401 0.152174 -0.150000
v -0.551401 -0.047826 -0.250000
v -0.551401 0.052174 -0.250000
v -0.451401 -0.047826 -0.250000
v -0.451401 0.052174 -0.250000
v -0.351401 0.052174 -0.250000
v -0.351401 0.152174 -0.250000
v -0.251401 0.052174 -0.250000
v -0.251401 0.152174 -0.250000
v 0.448599 -0.047826 -0.250000
v 0.448599 0.052174 -0.250000
v 0.548599 -0.047826 -0.250000
v 0.548599 0.052174 -0.250000
v -0.451401 -0.047826 -0.350000
v -0.451401 0.052174 -0.350000
v -0.351401 -0.047826 -0.350000
v -0.351401 0.052174 -0.350000
v 0.348599 -0.047826 -0.350000
v 0.348599 0.052174 -0.350000
v 0.448599 -0.047826 -0.350000
v 0.448599 0.052174 -0.350000
v -0.351401 -0.047826 -0.450000
v -0.351401 0.052174 -0.450000
v -0.251401 -0.047826 -0.450000
v -0.251401 0.052174 -0.450000
v 0.248599 -0.047826 -0.450000
v 0.248599 0.052174 -0.450000
v 0.348599 -0.047826 -0.450000
v 0.348599 0.052174 -0.450000
v -0.251401 -0.047826 -0.550000
v -0.251401 0.052174 -0.550000
v -0.051401 -0.047826 -0.550000
v -0.051401 0.052174 -0.550000
v 0.048599 -0.047826 -0.550000
v 0.048599 0.052174 -0.550000
v 0.248599 -0.047826 -0.550000
v 0.248599 0.052174 -0.550000
v -0.251401 -0.047826 0.550000
v -0.051401 -0.047826 0.550000
v 0.048599 -0.047826 0.550000
v 0.248599 -0.047826 0.550000
v -0.351401 -0.047826 0.450000
v -0.251401 -0.047826 0.450000
v 0.248599 -0.047826 0.450000
v 0.348599 -0.047826 0.450000
v -0.451401 -0.047826 0.350000
v -0.351401 -0.047826 0.350000
v 0.348599 -0.047826 0.350000
v 0.448599 -0.047826 0.350000
v -0.551401 -0.047826 0.250000
v -0.451401 -0.047826 0.250000
v 0.448599 -0.047826 0.250000
v 0.548599 -0.047826 0.250000
v -0.551401 -0.047826 0.050000
v -0.051401 -0.047826 0.050000
v 0.048599 -0.047826 0.050000
v 0.548599 -0.047826 0.050000
v -0.551401 -0.047826 -0.050000
v -0.051401 -0.047826 -0.050000
v 0.048599 -0.047826 -0.050000
v 0.548599 -0.047826 -0.050000
v -0.551401 -0.047826 -0.250000
v -0.451401 -0.047826 -0.250000
v 0.448599 -0.047826 -0.250000
v 0.548599 -0.047826 -0.250000
v -0.451401 -0.047826 -0.350000
v -0.351401 -0.047826 -0.350000
v 0.348599 -0.047826 -0.350000
v 0.448599 -0.047826 -0.350000
v -0.351401 -0.047826 -0.450000
v -0.251401 -0.047826 -0.450000
v 0.248599 -0.047826 -0.450000
v 0.348599 -0.047826 -0.450000
v -0.251401 -0.047826 -0.550000
v -0.051401 -0.047826 -0.550000
v 0.048599 -0.047826 -0.550000
v 0.248599 -0.047826 -0.550000
v -0.251401 0.052174 0.550000
v -0.051401 0.052174 0.550000
v 0.048599 0.052174 0.550000
v 0.248599 0.052174 0.550000
v -0.351401 0.052174 0.450000
v -0.251401 0.052174 0.450000
v 0.248599 0.052174 0.450000
v 0.348599 0.052174 0.450000
v -0.451401 0.052174 0.350000
v -0.351401 0.052174 0.350000
v 0.348599 0.052174 0.350000
v 0.448599 0.052174 0.350000
v -0.551401 0.052174 0.250000
v -0.451401 0.052174 0.250000
v -0.351401 0.052174 0.250000
v -0.251401 0.052174 0.250000
v 0.448599 0.052174 0.250000
v 0.548599 0.052174 0.250000
v -0.451401 0.052174 0.150000
v -0.351401 0.052174 0.150000
v -0.551401 0.052174 0.050000
v -0.451401 0.052174 0.050000
v -0.251401 0.052174 0.050000
v -0.051401 0.052174 0.050000
v 0.048599 0.052174 0.050000
v 0.548599 0.052174 0.050000
v -0.551401 0.052174 -0.050000
v -0.451401 0.052174 -0.050000
v -0.251401 0.052174 -0.050000
v -0.051401 0.052174 -0.050000
v 0.048599 0.052174 -0.050000
v 0.548599 0.052174 -0.050000
v -0.451401 0.052174 -0.150000
v -0.351401 0.052174 -0.150000
v -0.551401 0.052174 -0.250000
v -0.451401 0.052174 -0.250000
v -0.351401 0.052174 -0.250000
v -0.251401 0.052174 -0.250000
v 0.448599 0.052174 -0.250000
v 0.548599 0.052174 -0.250000
v -0.451401 0.052174 -0.350000
v -0.351401 0.052174 -0.350000
v 0.348599 0.052174 -0.350000
v 0.448599 0.052174 -0.350000
v -0.351401 0.052174 -0.450000
v -0.251401 0.052174 -0.450000
v 0.248599 0.052174 -0.450000
v 0.348599 0.052174 -0.450000
v -0.251401 0.052174 -0.550000
v -0.051401 0.052174 -0.550000
v 0.048599 0.052174 -0.550000
v 0.248599 0.052174 -0.550000
v -0.351401 0.152174 0.250000
v -0.251401 0.152174 0.250000
v -0.451401 0.152174 0.150000
v -0.351401 0.152174 0.150000
v -0.551401 0.152174 0.050000
v -0.451401 0.152174 0.050000
v -0.251401 0.152174 0.050000
v 0.048599 0.152174 0.050000
v -0.551401 0.152174 -0.050000
v -0.451401 0.152174 -0.050000
v -0.251401 0.152174 -0.050000
v 0.048599 0.152174 -0.050000
v -0.451401 0.152174 -0.150000
v -0.351401 0.152174 -0.150000
v -0.351401 0.152174 -0.250000
v -0.251401 0.152174 -0.250000
vn -1.0000 -0.0000 -0.0000
vn 1.0000 -0.0000 -0.0000
vn -0.0000 -0.0000 1.0000
vn -0.0000 -0.0000 -1.0000
vn -0.0000 -1.0000 -0.0000
vn -0.0000 1.0000 -0.0000
vt 0.958984 0.500000
vt 0.990234 0.500000
vt 0.923828 0.500000
vt 0.146484 0.500000
s 0
usemtl palette.001
f 5/1/1 2/1/1 1/1/1
f 6/2/1 3/2/1 2/2/1
f 6/1/1 2/1/1 5/1/1
f 7/3/1 4/3/1 3/3/1
f 7/2/1 3/2/1 6/2/1
f 8/3/1 4/3/1 7/3/1
f 9/4/1 7/4/1 6/4/1
f 10/4/1 7/4/1 9/4/1
f 15/1/1 12/1/1 11/1/1
f 16/1/1 12/1/1 15/1/1
f 21/3/1 14/3/1 13/3/1
f 22/3/1 14/3/1 21/3/1
f 23/4/1 18/4/1 17/4/1
f 24/4/1 18/4/1 23/4/1
f 25/4/1 20/4/1 19/4/1
f 26/4/1 20/4/1 25/4/1
f 31/1/1 28/1/1 27/1/1
f 32/1/1 28/1/1 31/1/1
f 37/3/1 30/3/1 29/3/1
f 38/3/1 30/3/1 37/3/1
f 39/4/1 34/4/1 33/4/1
f 40/4/1 34/4/1 39/4/1
f 41/4/1 36/4/1 35/4/1
f 42/4/1 36/4/1 41/4/1
f 47/1/1 44/1/1 43/1/1
f 48/1/1 44/1/1 47/1/1
f 49/3/1 46/3/1 45/3/1
f 50/3/1 46/3/1 49/3/1
f 51/4/2 52/4/2 55/4/2
f 55/4/2 52/4/2 56/4/2
f 53/4/2 54/4/2 57/4/2
f 57/4/2 54/4/2 58/4/2
f 59/4/2 60/4/2 61/4/2
f 61/4/2 60/4/2 62/4/2
f 63/3/2 64/3/2 67/3/2
f 67/3/2 64/3/2 68/3/2
f 65/1/2 66/1/2 69/1/2
f 69/1/2 66/1/2 70/1/2
f 71/3/2 72/3/2 75/3/2
f 75/3/2 72/3/2 76/3/2
f 73/1/2 74/1/2 77/1/2
f 77/1/2 74/1/2 78/1/2
f 79/3/2 80/3/2 83/3/2
f 83/3/2 80/3/2 84/3/2
f 81/1/2 82/1/2 85/1/2
f 85/1/2 82/1/2 86/1/2
f 87/3/2 88/3/2 91/3/2
f 88/2/2 89/2/2 92/2/2
f 91/3/2 88/3/2 92/3/2
f 89/1/2 90/1/2 93/1/2
f 92/2/2 89/2/2 93/2/2
f 93/1/2 90/1/2 94/1/2
f 97/1/3 96/1/3 95/1/3
f 98/1/3 96/1/3 97/1/3
f 99/2/3 98/2/3 97/2/3
f 100/2/3 98/2/3 99/2/3
f 101/3/3 100/3/3 99/3/3
f 102/3/3 100/3/3 101/3/3
f 105/1/3 104/1/3 103/1/3
f 106/1/3 104/1/3 105/1/3
f 109/3/3 108/3/3 107/3/3
f 110/3/3 108/3/3 109/3/3
f 113/1/3 112/1/3 111/1/3
f 114/1/3 112/1/3 113/1/3
f 117/3/3 116/3/3 115/3/3
f 118/3/3 116/3/3 117/3/3
f 121/1/3 120/1/3 119/1/3
f 122/1/3 120/1/3 121/1/3
f 125/4/3 124/4/3 123/4/3
f 126/4/3 124/4/3 125/4/3
f 129/3/3 128/3/3 127/3/3
f 130/3/3 128/3/3 129/3/3
f 133/4/3 132/4/3 131/4/3
f 134/4/3 132/4/3 133/4/3
f 137/4/3 136/4/3 135/4/3
f 138/4/3 136/4/3 137/4/3
f 141/4/3 140/4/3 139/4/3
f 142/4/3 140/4/3 141/4/3
f 143/4/3 140/4/3 142/4/3
f 144/4/4 145/4/4 146/4/4
f 146/4/4 145/4/4 147/4/4
f 148/4/4 149/4/4 150/4/4
f 150/4/4 149/4/4 151/4/4
f 151/4/4 149/4/4 152/4/4
f 153/4/4 154/4/4 155/4/4
f 155/4/4 154/4/4 156/4/4
f 157/3/4 158/3/4 159/3/4
f 159/3/4 158/3/4 160/3/4
f 161/4/4 162/4/4 163/4/4
f 163/4/4 162/4/4 164/4/4
f 165/1/4 166/1/4 167/1/4
f 167/1/4 166/1/4 168/1/4
f 169/3/4 170/3/4 171/3/4
f 171/3/4 170/3/4 172/3/4
f 173/1/4 174/1/4 175/1/4
f 175/1/4 174/1/4 176/1/4
f 177/3/4 178/3/4 179/3/4
f 179/3/4 178/3/4 180/3/4
f 181/1/4 182/1/4 183/1/4
f 183/1/4 182/1/4 184/1/4
f 185/3/4 186/3/4 187/3/4
f 187/3/4 186/3/4 188/3/4
f 187/2/4 188/2/4 189/2/4
f 189/2/4 188/2/4 190/2/4
f 189/1/4 190/1/4 191/1/4
f 191/1/4 190/1/4 192/1/4
f 198/1/5 194/1/5 193/1/5
f 199/3/5 196/3/5 195/3/5
f 202/1/5 198/1/5 197/1/5
f 203/3/5 200/3/5 199/3/5
f 206/1/5 202/1/5 201/1/5
f 207/3/5 204/3/5 203/3/5
f 209/1/5 206/1/5 205/1/5
f 210/2/5 195/2/5 194/2/5
f 210/1/5 206/1/5 209/1/5
f 210/1/5 194/1/5 198/1/5
f 210/1/5 198/1/5 202/1/5
f 210/1/5 202/1/5 206/1/5
f 211/3/5 208/3/5 207/3/5
f 211/2/5 195/2/5 210/2/5
f 211/3/5 207/3/5 203/3/5
f 211/3/5 203/3/5 199/3/5
f 211/3/5 199/3/5 195/3/5
f 212/3/5 208/3/5 211/3/5
f 213/2/5 210/2/5 209/2/5
f 213/2/5 211/2/5 210/2/5
f 213/2/5 212/2/5 211/2/5
f 214/2/5 212/2/5 213/2/5
f 215/2/5 212/2/5 214/2/5
f 216/2/5 212/2/5 215/2/5
f 217/3/5 214/3/5 213/3/5
f 218/3/5 214/3/5 217/3/5
f 219/1/5 216/1/5 215/1/5
f 220/1/5 216/1/5 219/1/5
f 221/3/5 214/3/5 218/3/5
f 222/3/5 214/3/5 221/3/5
f 223/1/5 219/1/5 215/1/5
f 224/1/5 219/1/5 223/1/5
f 225/3/5 214/3/5 222/3/5
f 226/3/5 214/3/5 225/3/5
f 227/1/5 223/1/5 215/1/5
f 228/1/5 223/1/5 227/1/5
f 229/3/5 214/3/5 226/3/5
f 230/2/5 215/2/5 214/2/5
f 230/3/5 214/3/5 229/3/5
f 231/1/5 227/1/5 215/1/5
f 231/2/5 215/2/5 230/2/5
f 232/1/5 227/1/5 231/1/5
f 233/1/6 234/1/6 238/1/6
f 235/3/6 236/3/6 239/3/6
f 237/1/6 238/1/6 242/1/6
f 239/3/6 240/3/6 243/3/6
f 241/1/6 242/1/6 246/1/6
f 242/1/6 238/1/6 247/1/6
f 246/1/6 242/1/6 247/1/6
f 238/1/6 234/1/6 248/1/6
f 247/1/6 238/1/6 248/1/6
f 243/3/6 244/3/6 249/3/6
f 246/1/6 247/1/6 251/1/6
f 245/1/6 246/1/6 251/1/6
f 251/1/6 247/1/6 252/1/6
f 245/1/6 251/1/6 253/1/6
f 253/1/6 251/1/6 254/1/6
f 248/1/6 234/1/6 255/1/6
f 234/2/6 235/2/6 256/2/6
f 255/1/6 234/1/6 256/1/6
f 249/3/6 250/3/6 257/3/6
f 256/2/6 235/2/6 257/2/6
f 235/3/6 239/3/6 257/3/6
f 243/3/6 249/3/6 257/3/6
f 239/3/6 243/3/6 257/3/6
f 257/3/6 250/3/6 258/3/6
f 257/2/6 258/2/6 263/2/6
f 263/2/6 258/2/6 264/2/6
f 259/3/6 260/3/6 265/3/6
f 259/3/6 265/3/6 267/3/6
f 265/3/6 266/3/6 267/3/6
f 267/3/6 266/3/6 268/3/6
f 268/3/6 266/3/6 269/3/6
f 261/3/6 262/3/6 270/3/6
f 263/1/6 264/1/6 271/1/6
f 271/1/6 264/1/6 272/1/6
f 268/3/6 269/3/6 273/3/6
f 269/3/6 270/3/6 273/3/6
f 273/3/6 270/3/6 274/3/6
f 263/1/6 271/1/6 275/1/6
f 275/1/6 271/1/6 276/1/6
f 274/3/6 270/3/6 277/3/6
f 270/3/6 262/3/6 278/3/6
f 277/3/6 270/3/6 278/3/6
f 263/1/6 275/1/6 279/1/6
f 279/1/6 275/1/6 280/1/6
f 278/3/6 262/3/6 281/3/6
f 262/2/6 263/2/6 282/2/6
f 281/3/6 262/3/6 282/3/6
f 263/1/6 279/1/6 283/1/6
f 282/2/6 263/2/6 283/2/6
f 283/1/6 279/1/6 284/1/6
f 285/4/6 286/4/6 288/4/6
f 287/4/6 288/4/6 290/4/6
f 288/4/6 286/4/6 291/4/6
f 290/4/6 288/4/6 291/4/6
f 289/4/6 290/4/6 293/4/6
f 291/4/6 292/4/6 293/4/6
f 290/4/6 291/4/6 293/4/6
f 293/4/6 292/4/6 294/4/6
f 294/4/6 292/4/6 295/4/6
f 295/4/6 292/4/6 296/4/6
f 294/4/6 295/4/6 297/4/6
f 297/4/6 295/4/6 298/4/6
f 298/4/6 295/4/6 299/4/6
f 299/4/6 295/4/6 300/4/6
