# Blender 4.0.0
# www.blender.org
mtllib Roof.mtl
o Cube.001
v -1.225071 2.000000 1.225071
v -1.225071 2.000000 -1.225071
v 1.225071 2.000000 1.225071
v 1.225071 2.000000 -1.225071
v 0.000000 3.196375 0.000000
vn -0.6987 0.7154 -0.0000
vn -0.0000 0.7154 -0.6987
vn 0.6987 0.7154 -0.0000
vn -0.0000 0.7154 0.6987
vn -0.0000 -1.0000 -0.0000
vt 0.082942 0.500000
vt 0.000000 0.000000
vt 0.500000 0.082942
vt 1.000000 0.000000
vt 0.917058 0.500000
vt 1.000000 1.000000
vt 0.500000 0.917058
vt 0.000000 1.000000
s 0
usemtl Material.001
f 1/1/1 5/2/1 2/3/1
f 2/3/2 5/4/2 4/5/2
f 4/5/3 5/6/3 3/7/3
f 3/7/4 5/8/4 1/1/4
f 2/3/5 4/5/5 3/7/5 1/1/5
